<svg width="32" height="32" viewBox="0 0 32 32" fill="none" xmlns="http://www.w3.org/2000/svg">
  <!-- Background circle -->
  <circle cx="16" cy="16" r="16" fill="#2496ED"/>
  
  <!-- Stylized whale body -->
  <path d="M24 16.5C24 13.4624 21.5376 11 18.5 11C18.3108 11 18.1243 11.0109 17.9409 11.0321C17.4419 9.2857 15.8481 8 14 8C11.7909 8 10 9.79086 10 12C10 12.7015 10.1854 13.3625 10.5143 13.9371C8.5332 14.3251 7 16.0768 7 18.1667C7 20.4853 8.84675 22.3333 11.1667 22.3333H21.8333C23.5777 22.3333 25 20.911 25 19.1667C25 17.6101 23.8483 16.3223 22.3503 16.0653C22.4486 15.8815 22.5 15.6761 22.5 15.4583C22.5 14.6259 21.8324 13.9583 21 13.9583C20.6708 13.9583 20.3708 14.0943 20.1503 14.3148C19.6433 12.9337 18.3805 12 17 12C15.3431 12 14 13.3431 14 15C14 15.5523 14.4477 16 15 16C15.5523 16 16 15.5523 16 15C16 14.4477 16.4477 14 17 14C17.5523 14 18 14.4477 18 15C18 15.5523 18.4477 16 19 16C19.5523 16 20 15.5523 20 15C20 14.4477 20.4477 14 21 14C21.5523 14 22 14.4477 22 15C22 15.5523 22.4477 16 23 16C23.5523 16 24 15.5523 24 15C24 14.4477 24.4477 14 25 14" 
        fill="white"/>
  
  <!-- Water spray -->
  <path d="M25 14C25.5523 14 26 13.5523 26 13C26 12.4477 25.5523 12 25 12C24.4477 12 24 12.4477 24 13C24 13.5523 24.4477 14 25 14Z" 
        fill="white"/>
</svg> 